<?xml version="1.0" encoding="UTF-8"?><svg id="Layer_2" xmlns="http://www.w3.org/2000/svg" width="494.27" height="123.05" xmlns:xlink="http://www.w3.org/1999/xlink" viewBox="0 0 494.27 123.05"><defs><linearGradient id="linear-gradient" x1="61.47" y1="123.05" x2="61.47" y2="71.58" gradientUnits="userSpaceOnUse"><stop offset="0" stop-color="#dc2626"/><stop offset="1" stop-color="#aa2121"/></linearGradient><linearGradient id="linear-gradient-2" x1="61.39" y1="51.22" x2="61.39" y2="0" gradientUnits="userSpaceOnUse"><stop offset="0" stop-color="#aa2121"/><stop offset="1" stop-color="#dc2626"/></linearGradient><linearGradient id="linear-gradient-3" x1="0" y1="61.67" x2="51.38" y2="61.67" xlink:href="#linear-gradient"/><linearGradient id="linear-gradient-4" x1="395.3" y1="58.41" x2="446.61" y2="58.41" xlink:href="#linear-gradient"/><linearGradient id="linear-gradient-5" x1="451.34" y1="58.41" x2="494.27" y2="58.41" xlink:href="#linear-gradient"/></defs><g id="Layer_1-2"><path d="M91.84,36.62c-6.95,5.73-13.61,11.2-20.35,16.76,3.93,5.64,3.64,11.37-.13,16.57,6.79,5.55,13.42,10.96,20.39,16.64,10.09-8.18,20.41-16.55,30.9-25.06-10.53-8.51-20.81-16.82-30.81-24.91Z" fill="#fff" stroke-width="0"/><path d="M53.15,71.58c-5.46,6.78-10.86,13.5-16.52,20.52,8.06,10.11,16.3,20.43,24.69,30.95,8.49-10.51,16.8-20.79,24.98-30.91-5.64-6.88-11.14-13.6-16.66-20.33-5.66,3.71-11.29,3.66-16.5-.24Z" fill="url(#linear-gradient)" stroke-width="0"/><path d="M69.04,50.85c5.83-6.71,11.48-13.22,17.29-19.91-8.11-10.03-16.42-20.32-25.01-30.94-8.57,10.67-16.85,20.97-24.88,30.96,5.72,6.92,11.22,13.56,16.76,20.25,5.1-3.84,10.76-3.77,15.84-.37Z" fill="url(#linear-gradient-2)" stroke-width="0"/><path d="M50.68,53.79c-6.69-5.86-13.2-11.57-19.81-17.37C20.77,44.64,10.52,52.98,0,61.54c10.52,8.56,20.81,16.92,31.21,25.38,6.12-6.44,12.14-12.65,20.17-16.64-4.06-5.76-4.04-11.38-.7-16.48Z" fill="url(#linear-gradient-3)" stroke-width="0"/><path d="M193.91,29.91v57.01h-10.41l-24.8-35.88h-.42v35.88h-12.05V29.91h10.58l24.61,35.85h.5V29.91h12Z" fill="#fff" stroke-width="0"/><path d="M205.66,38.65c-1.76,0-3.27-.59-4.52-1.77-1.25-1.18-1.88-2.59-1.88-4.25s.63-3.04,1.88-4.22c1.25-1.18,2.76-1.77,4.52-1.77s3.27.59,4.52,1.77c1.25,1.18,1.88,2.58,1.88,4.22s-.63,3.07-1.88,4.25c-1.25,1.18-2.76,1.77-4.52,1.77ZM199.7,86.92v-42.76h11.86v42.76h-11.86Z" fill="#fff" stroke-width="0"/><path d="M217.11,86.92v-42.76h11.3v7.54h.5c.89-2.51,2.38-4.48,4.45-5.93,2.08-1.45,4.56-2.17,7.46-2.17s5.43.73,7.49,2.19c2.06,1.46,3.43,3.43,4.12,5.92h.45c.87-2.45,2.45-4.41,4.75-5.89,2.29-1.48,5.01-2.21,8.14-2.21,3.99,0,7.23,1.27,9.73,3.8,2.5,2.53,3.74,6.12,3.74,10.76v28.75h-11.83v-26.42c0-2.38-.63-4.16-1.89-5.34-1.26-1.19-2.84-1.78-4.73-1.78-2.15,0-3.83.68-5.04,2.05-1.21,1.36-1.81,3.16-1.81,5.39v26.11h-11.5v-26.67c0-2.1-.6-3.77-1.8-5.01-1.2-1.24-2.77-1.87-4.72-1.87-1.32,0-2.5.33-3.55.99-1.05.66-1.88,1.58-2.49,2.76-.61,1.18-.92,2.56-.92,4.13v25.66h-11.86Z" fill="#fff" stroke-width="0"/><path d="M304.15,87.75c-4.4,0-8.18-.9-11.34-2.69-3.16-1.79-5.6-4.33-7.31-7.63-1.71-3.29-2.56-7.2-2.56-11.71s.85-8.26,2.56-11.58c1.71-3.32,4.11-5.91,7.22-7.77,3.11-1.86,6.76-2.78,10.95-2.78,2.82,0,5.45.45,7.89,1.35,2.44.9,4.57,2.25,6.4,4.05,1.83,1.8,3.25,4.06,4.27,6.78s1.53,5.9,1.53,9.53v3.26h-36.1v-7.35h24.94c0-1.71-.37-3.22-1.11-4.54-.74-1.32-1.77-2.35-3.08-3.1-1.31-.75-2.83-1.13-4.55-1.13s-3.39.41-4.77,1.24c-1.38.83-2.46,1.93-3.24,3.31-.78,1.38-1.18,2.92-1.2,4.61v6.99c0,2.12.39,3.94,1.18,5.48.79,1.54,1.91,2.73,3.35,3.56,1.45.84,3.16,1.25,5.15,1.25,1.32,0,2.52-.19,3.62-.56,1.09-.37,2.03-.93,2.81-1.67.78-.74,1.37-1.65,1.78-2.73l10.97.72c-.56,2.64-1.69,4.93-3.41,6.89-1.72,1.96-3.92,3.48-6.62,4.56-2.7,1.09-5.81,1.63-9.34,1.63Z" fill="#fff" stroke-width="0"/><path d="M327.6,86.92v-42.76h11.5v7.46h.45c.78-2.65,2.09-4.66,3.92-6.03,1.84-1.36,3.95-2.05,6.35-2.05.59,0,1.23.04,1.92.11s1.29.18,1.81.31v10.52c-.56-.17-1.33-.32-2.31-.45-.98-.13-1.88-.2-2.7-.2-1.74,0-3.3.38-4.66,1.13-1.36.75-2.44,1.8-3.23,3.13-.79,1.34-1.18,2.88-1.18,4.62v24.19h-11.86Z" fill="#fff" stroke-width="0"/><path d="M366.71,87.72c-2.73,0-5.16-.48-7.29-1.43-2.13-.96-3.82-2.38-5.05-4.26-1.23-1.88-1.85-4.24-1.85-7.06,0-2.38.44-4.37,1.31-5.98.87-1.61,2.06-2.91,3.56-3.9,1.5-.98,3.22-1.73,5.14-2.23,1.92-.5,3.94-.85,6.05-1.06,2.49-.26,4.49-.51,6.01-.74,1.52-.23,2.63-.58,3.31-1.04.69-.46,1.03-1.15,1.03-2.06v-.17c0-1.76-.55-3.13-1.66-4.09-1.1-.96-2.67-1.45-4.69-1.45-2.13,0-3.83.47-5.09,1.41-1.26.94-2.1,2.11-2.51,3.52l-10.97-.89c.56-2.6,1.65-4.85,3.28-6.75,1.63-1.9,3.74-3.37,6.33-4.4,2.59-1.03,5.59-1.54,9.01-1.54,2.38,0,4.65.28,6.83.83,2.18.56,4.12,1.42,5.82,2.59,1.7,1.17,3.04,2.67,4.02,4.5.98,1.83,1.48,4.01,1.48,6.56v28.84h-11.25v-5.93h-.33c-.69,1.34-1.6,2.51-2.76,3.52-1.15,1.01-2.53,1.8-4.15,2.37-1.61.57-3.48.85-5.59.85ZM370.11,79.54c1.74,0,3.28-.35,4.62-1.04,1.34-.7,2.38-1.64,3.15-2.83.76-1.19,1.14-2.53,1.14-4.04v-4.54c-.37.24-.88.46-1.52.65-.64.19-1.36.37-2.16.53-.8.16-1.6.3-2.39.42-.8.12-1.52.23-2.17.32-1.39.2-2.61.53-3.65.97-1.04.45-1.85,1.04-2.42,1.8s-.86,1.68-.86,2.8c0,1.61.59,2.84,1.77,3.69,1.18.84,2.68,1.27,4.5,1.27Z" fill="#fff" stroke-width="0"/><path d="M446.61,49.87h-12.19c-.22-1.58-.68-2.98-1.36-4.22-.69-1.23-1.57-2.29-2.64-3.16-1.08-.87-2.31-1.54-3.72-2-1.4-.46-2.92-.7-4.55-.7-2.95,0-5.52.73-7.71,2.19-2.19,1.46-3.89,3.57-5.09,6.35-1.21,2.77-1.81,6.14-1.81,10.09s.61,7.48,1.82,10.24c1.21,2.77,2.92,4.85,5.11,6.26,2.19,1.41,4.72,2.12,7.6,2.12,1.61,0,3.11-.21,4.5-.64,1.38-.43,2.61-1.05,3.69-1.88s1.97-1.83,2.69-3.02c.71-1.19,1.21-2.54,1.49-4.06l12.19.06c-.31,2.62-1.1,5.14-2.35,7.56-1.25,2.42-2.93,4.58-5.04,6.49-2.11,1.9-4.61,3.41-7.52,4.51-2.9,1.1-6.18,1.66-9.84,1.66-5.08,0-9.63-1.15-13.63-3.45-4-2.3-7.15-5.63-9.46-9.99-2.31-4.36-3.47-9.64-3.47-15.84s1.17-11.51,3.51-15.87c2.34-4.36,5.51-7.69,9.52-9.98s8.52-3.44,13.53-3.44c3.3,0,6.37.46,9.2,1.39,2.83.93,5.34,2.28,7.53,4.05,2.19,1.77,3.97,3.94,5.36,6.5s2.27,5.49,2.66,8.8Z" fill="url(#linear-gradient-4)" stroke-width="0"/><path d="M451.34,86.92V29.91h22.49c4.32,0,8.01.82,11.05,2.46,3.04,1.64,5.37,3.92,6.97,6.82s2.41,6.25,2.41,10.03-.82,7.13-2.45,10.02c-1.63,2.9-4,5.15-7.08,6.76s-6.82,2.42-11.2,2.42h-14.33v-9.66h12.39c2.32,0,4.24-.4,5.75-1.21s2.64-1.93,3.4-3.37c.75-1.44,1.13-3.09,1.13-4.97s-.38-3.55-1.13-4.97c-.75-1.42-1.89-2.52-3.41-3.31-1.52-.79-3.45-1.18-5.79-1.18h-8.13v47.15h-12.05Z" fill="url(#linear-gradient-5)" stroke-width="0"/></g></svg>