<?xml version="1.0" encoding="UTF-8"?><svg id="Layer_2" xmlns="http://www.w3.org/2000/svg" width="122.65" height="123.05" xmlns:xlink="http://www.w3.org/1999/xlink" viewBox="0 0 122.65 123.05"><defs><linearGradient id="linear-gradient" x1="61.47" y1="123.05" x2="61.47" y2="71.58" gradientUnits="userSpaceOnUse"><stop offset="0" stop-color="#dc2626"/><stop offset="1" stop-color="#aa2121"/></linearGradient><linearGradient id="linear-gradient-2" x1="61.39" y1="51.22" x2="61.39" y2="0" gradientUnits="userSpaceOnUse"><stop offset="0" stop-color="#aa2121"/><stop offset="1" stop-color="#dc2626"/></linearGradient><linearGradient id="linear-gradient-3" x1="0" y1="61.67" x2="51.38" y2="61.67" xlink:href="#linear-gradient"/></defs><g id="Layer_1-2"><path d="M91.84,36.62c-6.95,5.73-13.61,11.2-20.35,16.76,3.93,5.64,3.64,11.37-.13,16.57,6.79,5.55,13.42,10.96,20.39,16.64,10.09-8.18,20.41-16.55,30.9-25.06-10.53-8.51-20.81-16.82-30.81-24.91Z" fill="#fff" stroke-width="0"/><path d="M53.15,71.58c-5.46,6.78-10.86,13.5-16.52,20.52,8.06,10.11,16.3,20.43,24.69,30.95,8.49-10.51,16.8-20.79,24.98-30.91-5.64-6.88-11.14-13.6-16.66-20.33-5.66,3.71-11.29,3.66-16.5-.24Z" fill="url(#linear-gradient)" stroke-width="0"/><path d="M69.04,50.85c5.83-6.71,11.48-13.22,17.29-19.91-8.11-10.03-16.42-20.32-25.01-30.94-8.57,10.67-16.85,20.97-24.88,30.96,5.72,6.92,11.22,13.56,16.76,20.25,5.1-3.84,10.76-3.77,15.84-.37Z" fill="url(#linear-gradient-2)" stroke-width="0"/><path d="M50.68,53.79c-6.69-5.86-13.2-11.57-19.81-17.37C20.77,44.64,10.52,52.98,0,61.54c10.52,8.56,20.81,16.92,31.21,25.38,6.12-6.44,12.14-12.65,20.17-16.64-4.06-5.76-4.04-11.38-.7-16.48Z" fill="url(#linear-gradient-3)" stroke-width="0"/></g></svg>